<?xml version="1.0" encoding="UTF-8" standalone="no"?>
<!-- Created with Inkscape (http://www.inkscape.org/) -->

<svg
   xmlns:dc="http://purl.org/dc/elements/1.1/"
   xmlns:cc="http://creativecommons.org/ns#"
   xmlns:rdf="http://www.w3.org/1999/02/22-rdf-syntax-ns#"
   xmlns:svg="http://www.w3.org/2000/svg"
   xmlns="http://www.w3.org/2000/svg"
   xmlns:sodipodi="http://sodipodi.sourceforge.net/DTD/sodipodi-0.dtd"
   xmlns:inkscape="http://www.inkscape.org/namespaces/inkscape"
   version="1.1"
   id="svg61"
   width="373.33334"
   height="230.66667"
   viewBox="0 0 373.33334 230.66667"
   sodipodi:docname="logo2.svg"
   inkscape:version="0.92.5 (0.92.5+69)">
  <metadata
     id="metadata67">
    <rdf:RDF>
      <cc:Work
         rdf:about="">
        <dc:format>image/svg+xml</dc:format>
        <dc:type
           rdf:resource="http://purl.org/dc/dcmitype/StillImage" />
        <dc:title />
      </cc:Work>
    </rdf:RDF>
  </metadata>
  <defs
     id="defs65" />
  <sodipodi:namedview
     pagecolor="#ffffff"
     bordercolor="#666666"
     borderopacity="1"
     objecttolerance="10"
     gridtolerance="10"
     guidetolerance="10"
     inkscape:pageopacity="0"
     inkscape:pageshadow="2"
     inkscape:window-width="1366"
     inkscape:window-height="692"
     id="namedview63"
     showgrid="false"
     inkscape:zoom="2.1893063"
     inkscape:cx="203.54829"
     inkscape:cy="107.18497"
     inkscape:window-x="0"
     inkscape:window-y="0"
     inkscape:window-maximized="1"
     inkscape:current-layer="svg61" />
  <path
     style="fill:#f2f2f2;stroke-width:1.33333337"
     d="m 156.67866,222.44709 c 0.026,-0.91667 0.90472,-3.16667 1.95275,-5 1.82471,-3.19199 1.90751,-3.21075 1.95275,-0.44239 0.0611,3.73695 -1.24908,7.10906 -2.76207,7.10906 -0.65487,0 -1.16941,-0.75 -1.14343,-1.66667 z m -35.21377,-5.86027 c 1.66905,-3.99458 1.7163,-5.05961 0.2653,-5.97957 -1.34186,-0.85076 -1.20561,-1.12423 0.56789,-1.13975 1.28333,-0.0107 2.32998,0.42959 2.32589,0.97959 -0.0217,2.91583 -2.95197,11 -3.9872,11 -0.66144,0 -0.28879,-2.18712 0.82812,-4.86027 z m 3.69628,0.54479 c 0.4747,-2.37351 1.78213,-5.22351 2.90539,-6.33333 1.82653,-1.80468 1.94372,-1.75714 1.10928,0.45004 -0.51316,1.35734 -0.32747,2.85734 0.41262,3.33333 0.77961,0.5014 0.90075,1.98715 0.28801,3.53211 -0.99097,2.49858 -1.06354,2.47261 -1.15135,-0.41203 -0.0567,-1.86213 -0.66648,-2.72469 -1.5432,-2.18285 -0.79722,0.4927 -1.15339,2.02812 -0.7915,3.41202 0.3619,1.38391 0.0392,2.51619 -0.71717,2.51619 -0.8392,0 -1.03878,-1.68196 -0.51208,-4.31548 z m 6.69395,2.12037 c 0.42696,-1.11265 0.77629,-2.57392 0.77629,-3.24728 0,-0.67334 0.54383,-1.22428 1.20851,-1.22428 0.66468,0 0.8947,1.2 0.51116,2.66667 -1.09843,4.20039 0.93149,3.10909 2.48012,-1.33333 0.76693,-2.2 1.9999,-4 2.73996,-4 0.77433,0 0.92016,0.99057 0.3435,2.33333 -0.55113,1.28333 -1.04389,3.29568 -1.09504,4.47188 -0.0616,1.41673 -1.38364,2.17525 -3.91689,2.24728 -2.89428,0.0823 -3.63518,-0.38309 -3.04761,-1.91427 z m 9.51192,0.97336 c -0.35762,-0.57864 0.20073,-2.19045 1.24077,-3.58182 1.78515,-2.38819 1.84561,-2.3502 1.08059,0.67873 -0.56552,2.23901 -0.34404,2.92028 0.73298,2.25464 0.84884,-0.52461 1.54336,-1.81844 1.54336,-2.87516 0,-1.05672 0.66419,-1.92131 1.47599,-1.92131 0.81179,0 1.11179,0.94907 0.66667,2.10906 -0.44514,1.15997 -0.80932,2.53229 -0.80932,3.04958 0,1.31846 -5.13979,1.56655 -5.93104,0.28628 z m 8.5977,-2.11158 c 0,-1.83334 0.53654,-3.33334 1.19228,-3.33334 0.65576,0 1.10576,1.49958 1,3.33239 -0.25065,4.34395 -2.19228,4.34477 -2.19228,9.5e-4 z m 12.58759,1.87205 c -0.49672,-0.80371 -0.004,-2.3598 1.09357,-3.45799 1.77339,-1.77337 1.92278,-1.60993 1.33567,1.4613 -0.7332,3.83552 -1.10428,4.14052 -2.42924,1.99669 z m 5.63464,0.57239 c -1.31273,-1.31272 -1.07933,-5.50271 0.35595,-6.38975 0.68465,-0.42315 1.19334,1.04144 1.13042,3.25464 -0.12413,4.36416 -0.16693,4.45455 -1.48637,3.13511 z m 23.11111,-1.03703 c 0,-0.96116 0.8528,-2.45532 1.8951,-3.32036 1.56442,-1.29835 1.76043,-1.0578 1.1233,1.37857 -0.53162,2.03288 -0.2915,2.65452 0.77157,1.99751 0.84884,-0.52461 1.54336,-1.81844 1.54336,-2.87516 0,-1.05672 0.45,-1.92131 1,-1.92131 0.55,0 1,1.41296 1,3.13991 0,2.51119 -0.73419,3.16077 -3.66667,3.24415 -2.188,0.0623 -3.66666,-0.6005 -3.66666,-1.64331 z m 9.83598,-0.0207 c -0.45765,-1.19261 -0.45796,-2.5425 -7e-4,-2.99976 0.45726,-0.45726 0.83138,0.16862 0.83138,1.39083 0,3.28869 2.37928,2.69664 3.12567,-0.77777 0.59613,-2.77496 0.62809,-2.75779 0.42607,0.22889 -0.25815,3.81659 -3.19163,5.26097 -4.38242,2.15781 z m 20.83068,-0.64135 c 0,-1.42339 0.45,-2.8661 1,-3.20602 0.55,-0.33992 1,0.82467 1,2.58798 0,1.7633 -0.45,3.20601 -1,3.20601 -0.55,0 -1,-1.16459 -1,-2.58797 z m 4.8889,1.69908 c -1.30106,-1.30104 -1.08583,-5.77778 0.27777,-5.77778 0.64167,0 1.16667,1.5 1.16667,3.33334 0,3.60812 -0.10427,3.7846 -1.44444,2.44444 z m 3.78429,-0.43388 c -0.44963,-0.72752 -0.26004,-2.31892 0.42132,-3.53644 1.00791,-1.80104 1.23883,-1.55447 1.23883,1.32277 0,3.80103 -0.3723,4.29744 -1.66015,2.21367 z m 4.23901,0.32277 c -0.31818,-0.55 -0.0957,-2.2 0.49427,-3.66667 0.93653,-2.328 1.08468,-2.201 1.16648,1 0.0924,3.61734 -0.53133,4.61895 -1.66075,2.66667 z m 5.31003,0.11107 c -1.58185,-1.58184 -0.94355,-6.5332 1.18467,-9.1896 2.0401,-2.54644 2.05346,-2.54518 0.82798,0.0785 -0.68506,1.46667 -1.05909,4.31667 -0.83118,6.33333 0.43498,3.8489 0.27225,4.2315 -1.18147,2.77778 z m 5.33333,0 c -0.48889,-0.48888 -0.87065,-1.83888 -0.84834,-3 0.0333,-1.73374 0.29348,-1.67614 1.45554,0.32222 1.43571,2.46892 1.01948,4.30447 -0.6072,2.67778 z m -91.53514,-1.4444 c 0.0107,-0.55 0.58466,-1.89244 1.27432,-2.98319 0.98545,-1.55863 1.20578,-1.34453 1.02917,1 -0.19915,2.6438 -2.35487,4.49977 -2.30349,1.98319 z m 32.97958,-2.3814 c -1.28333,-1.71612 -2.32322,-3.90736 -2.31086,-4.86942 0.012,-0.96205 1.2872,0.22596 2.83298,2.64004 3.28171,5.12507 2.89096,6.79348 -0.52212,2.22938 z m 29.7186,-0.79968 c 0.65952,-2.2996 1.47771,-4.45968 1.81822,-4.80019 1.00353,-1.00352 3.4723,1.00112 3.35792,2.72663 -0.0753,1.13658 -0.29722,1.11185 -0.78055,-0.0869 -1.04589,-2.59436 -3.11419,-0.54413 -3.11419,3.0869 0,1.79005 -0.55812,3.25464 -1.24025,3.25464 -0.75605,0 -0.77211,-1.63236 -0.0412,-4.18108 z m -40.7186,1.51441 c 0.45323,-0.73333 1.08864,-1.33333 1.41203,-1.33333 0.32339,0 0.58797,0.6 0.58797,1.33333 0,0.73333 -0.63541,1.33333 -1.41202,1.33333 -0.77662,0 -1.0412,-0.6 -0.58798,-1.33333 z m 72.77194,-0.77777 c 0.064,-1.55327 0.37992,-1.8692 0.80554,-0.80556 0.38516,0.96249 0.3378,2.11249 -0.1052,2.55556 -0.44306,0.44305 -0.75818,-0.34446 -0.70029,-1.75 z m -36,-2.66667 c 0.064,-1.55327 0.37992,-1.8692 0.80554,-0.80556 0.38516,0.96249 0.3378,2.11249 -0.1052,2.55556 -0.44306,0.44305 -0.75818,-0.34445 -0.70029,-1.75 z m -18.10527,-1.88889 c -1.04291,-1.68747 0.72217,-1.68747 3.33333,0 1.72359,1.11386 1.68839,1.29532 -0.25464,1.31292 -1.24005,0.0112 -2.62546,-0.57959 -3.07869,-1.31292 z M 8.6314078,200.2671 c 0,-0.64898 1.5000002,-2.16282 3.3333332,-3.36406 1.833334,-1.20126 3.333334,-3.38954 3.333334,-4.86284 0,-3.91307 3.66553,-12.04438 6.347478,-14.08072 3.248059,-2.46619 7.951558,-2.26587 9.444705,0.40224 1.500904,2.68197 -0.516756,7.8998 -3.496954,9.04341 -2.949577,1.13185 -3.999359,-0.60477 -1.284122,-2.12429 3.374441,-1.88844 3.081274,-7.83375 -0.386287,-7.83375 -1.489682,0 -2.931651,0.75 -3.204375,1.66667 -0.272723,0.91666 -1.363027,4.36666 -2.422897,7.66666 -1.059871,3.3 -2.167902,6.83662 -2.462292,7.85914 -0.341372,1.1857 1.080044,2.29802 3.924094,3.07077 5.121317,1.39151 10.084163,-1.00759 11.534017,-5.57568 0.474256,-1.49424 2.480536,-3.55364 4.4584,-4.57643 4.471313,-2.31221 11.3657,-1.29594 10.286547,1.5163 -2.16098,5.63141 -2.299418,8.37257 -0.422842,8.37257 2.79213,0 6.548668,-4.60063 5.655996,-6.92689 -0.41772,-1.08856 0.167814,-2.7488 1.301187,-3.68942 1.714675,-1.42305 2.060679,-1.34698 2.060679,0.45306 0,2.39765 2.049112,2.90784 3.333333,0.82992 2.046849,-3.31187 3.003293,-0.86911 1.277208,3.262 -1.960321,4.6917 -0.910996,7.05629 2.389459,5.38448 0.916667,-0.46434 0.478272,0.1176 -0.974211,1.29318 -5.091631,4.12095 -7.900392,1.29642 -5.243552,-5.273 0.714345,-1.76632 -1.099719,-0.75342 -5.372939,3 -3.548273,3.11667 -6.945821,5.66667 -7.550107,5.66667 -2.143213,0 -4.208769,-5.51709 -2.64938,-7.07648 1.712052,-1.71205 1.96775,-7.59019 0.330172,-7.59019 -1.482812,0 -4.91341,4.04391 -5.981777,7.05119 -0.600616,1.69063 0.0051,2.69973 2.081268,3.46779 l 2.928396,1.08329 -3.106156,1.66236 c -2.572847,1.37695 -3.455659,1.31285 -5.141784,-0.37327 -1.825285,-1.82528 -2.373999,-1.81392 -5.3102,0.11 -2.720502,1.78255 -4.21098,1.8939 -8.808816,0.65808 -3.437374,-0.92389 -6.014176,-1.01488 -6.800915,-0.2401 -1.599868,1.57552 -3.4000002,1.6112 -3.4000002,0.0675 z m 64.2395302,-0.5314 c -0.813762,-0.98052 -0.944688,-2.48097 -0.306574,-3.51346 0.868857,-1.40584 1.448745,-1.17614 2.637308,1.04472 1.904888,3.55932 6.218588,3.68886 8.063212,0.24216 1.141976,-2.13382 0.62804,-3.47699 -2.843035,-7.43034 -3.579983,-4.07737 -4.047311,-5.3623 -3.01372,-8.2864 0.672804,-1.9034 2.12328,-3.75732 3.22328,-4.11984 1.710011,-0.56354 1.736443,-0.33981 0.182288,1.543 -1.579681,1.91375 -1.274132,2.82122 2.333334,6.9299 2.283074,2.60028 4.151045,5.88352 4.151045,7.2961 0,5.91144 -10.825235,10.63419 -14.427138,6.29416 z m 18.693803,0.11139 c -2.381352,-2.38135 -1.970461,-4.4218 1.7905,-8.89144 2.7807,-3.30468 4.31451,-3.99253 8.528049,-3.82451 4.81869,0.19216 5.0634,0.3999 3.94283,3.34722 -2.95833,7.781 0.0652,9.50545 4.24504,2.42113 3.52231,-5.96988 6.84433,-7.48536 4.85491,-2.21477 -1.56131,4.13637 -0.45801,8.5946 1.92996,7.79861 0.88718,-0.29573 1.56885,-3.22191 1.58515,-6.80449 0.0174,-3.82934 0.58121,-6.09955 1.44274,-5.80944 0.77779,0.2619 1.43667,2.91997 1.46418,5.90681 0.0424,4.59863 -0.53964,5.77896 -3.79889,7.70424 -3.47024,2.04993 -4.05149,2.07105 -5.90788,0.21465 -1.85639,-1.85638 -2.384,-1.84597 -5.36275,0.10574 -3.06365,2.00738 -3.42466,1.99944 -4.96662,-0.10934 -1.474379,-2.01633 -1.852319,-2.04572 -3.334949,-0.25926 -2.0154,2.42841 -4.25385,2.5732 -6.41227,0.41478 z m 9.877719,-7.16724 c 0.4634,-1.84632 0.4417,-3.75779 -0.0482,-4.24769 -1.803579,-1.80358 -5.442119,2.07789 -5.854479,6.24534 -0.39241,3.96578 -0.21484,4.18238 2.31759,2.82706 1.50841,-0.80728 3.121699,-2.9784 3.585099,-4.82471 z m 36.78895,7.16724 c -2.12864,-2.12864 -2.01831,-6.21247 0.34915,-12.92252 1.90029,-5.38603 1.59312,-9.47748 -0.71156,-9.47748 -2.0171,0 -4.0812,5.34201 -3.17154,8.20812 0.63286,1.99396 0.37243,2.60488 -0.92613,2.17248 -3.01212,-1.003 -2.78642,-4.53448 0.53669,-8.39783 2.32488,-2.70284 3.87698,-3.4259 5.945,-2.76953 4.0568,1.28757 4.41422,3.46243 2.08719,12.70031 -1.52832,6.06714 -1.68489,8.64369 -0.59171,9.73688 3.82019,3.82018 10.50332,-8.81516 8.97408,-16.9667 -1.00225,-5.34245 1.43644,-7.69678 2.71127,-2.61748 1.17183,4.66896 -1.40552,12.8613 -5.62315,17.87366 -3.59734,4.2752 -6.91274,5.12664 -9.57929,2.46009 z m 16.41401,0.28935 c -1.24633,-2.01662 0.70063,-10.40264 2.82435,-12.16518 2.59076,-2.15013 3.69017,-0.66976 1.93633,2.60731 -2.12749,3.97527 -1.75481,6.86283 0.89198,6.91092 2.11128,0.0384 2.08702,0.22871 -0.25484,2 -3.03331,2.29428 -4.28686,2.44452 -5.39782,0.64695 z m 9.41456,-0.78459 c -2.65621,-2.65621 -2.63249,-3.00725 0.55682,-8.23809 2.83301,-4.64648 9.34794,-6.27267 9.34794,-2.33334 0,1.1 -0.6,2 -1.33333,2 -0.73333,0 -1.33333,-0.6 -1.33333,-1.33333 0,-2.60233 -2.74702,-1.28245 -4.26504,2.04925 -1.27194,2.79159 -1.1461,3.77771 0.72026,5.64407 2.60239,2.60239 5.92395,1.25637 8.2635,-3.34865 3.30144,-6.49839 8.43393,-9.20642 10.6507,-5.6196 0.96407,1.55988 -1.63893,5.27493 -3.69594,5.27493 -0.73438,0 -0.57568,-0.91292 0.35326,-2.03223 1.99667,-2.40582 0.9312,-3.95401 -1.95812,-2.84526 -2.3902,0.9172 -2.29301,7.03141 0.1439,9.05386 2.5632,2.12727 6.713,-0.90065 8.45077,-6.16613 1.60456,-4.86189 4.00337,-6.32663 4.00337,-2.44449 0,1.83564 0.60495,1.6641 3.40356,-0.96506 2.71702,-2.5525 3.63088,-2.82966 4.5305,-1.37408 0.63401,1.02587 0.53586,3.51894 -0.22439,5.6998 -0.74323,2.132 -0.96767,4.26004 -0.49875,4.72895 1.3698,1.3698 5.34946,-3.38777 5.57027,-6.65912 0.27905,-4.13391 2.8964,-10.32957 4.36371,-10.32957 2.14848,0 2.78573,7.24137 0.73917,8.39958 -1.03624,0.58644 -1.88407,2.87687 -1.88407,5.08986 0,3.52833 0.36927,3.92197 3,3.19804 2.91556,-0.80232 2.92715,-0.76732 0.41183,1.24348 -3.08652,2.46742 -5.00456,2.60964 -7.08865,0.52554 -1.1691,-1.16909 -2.0382,-1.13292 -3.58302,0.14918 -3.73157,3.09693 -6.31041,0.69412 -5.28214,-4.9216 l 0.91872,-5.01742 -2.85503,2.53999 c -1.57028,1.39699 -2.85504,3.94699 -2.85504,5.66667 0,1.89038 -0.7908,3.12668 -2,3.12668 -1.1,0 -2,-0.5721 -2,-1.27132 0,-0.69923 -1.75404,-0.26464 -3.89787,0.96574 -3.68069,2.11243 -4.04757,2.10159 -6.58504,-0.19478 -2.48621,-2.25 -2.91489,-2.27236 -5.73214,-0.29908 -3.824,2.67842 -5.70703,2.68689 -8.35638,0.0376 z m 52.55779,-1.93024 c -2.86903,-5.36084 4.29677,-14.2792 8.60219,-10.70603 1.96833,1.63358 1.96049,1.98484 -0.0949,4.25602 -2.95801,3.26857 -4.95517,3.17833 -2.88876,-0.13054 0.89512,-1.43332 1.16759,-3.06594 0.60547,-3.62805 -1.38115,-1.38115 -3.49808,2.18941 -3.52328,5.94259 -0.0256,3.81013 3.44691,5.25601 7.15621,2.97972 2.80058,-1.71864 2.80286,-1.70958 0.28339,1.1229 -3.2092,3.6079 -8.25337,3.68918 -10.14032,0.16339 z m 22.23587,1.80325 c -3.24938,-3.24936 1.47036,-12.44444 6.38758,-12.44444 2.5007,0 3.35675,-0.97876 4.28351,-4.89748 0.63703,-2.69361 1.98155,-5.17192 2.98783,-5.50734 1.38916,-0.46306 1.62214,0.31468 0.96784,3.23081 -0.47396,2.11237 -1.25115,7.07144 -1.7271,11.02015 -0.70238,5.82748 -0.51288,7.06477 1.00639,6.57045 1.02944,-0.33495 2.92644,-2.81571 4.21555,-5.51279 1.2891,-2.69709 3.01257,-4.9038 3.82992,-4.9038 1.07856,0 1.07066,0.50056 -0.0288,1.82532 -3.11998,3.75934 -0.0525,10.74823 4.13421,9.4194 1.81461,-0.57593 2.41743,-0.37186 1.80909,0.61244 -1.17054,1.89398 -7.78098,1.9168 -9.66441,0.0333 -1.03485,-1.03486 -2.21064,-0.96328 -4.1584,0.2531 -2.16172,1.35003 -3.12139,1.35915 -4.70516,0.0447 -1.34717,-1.11805 -2.26856,-1.19979 -2.85363,-0.25312 -0.96345,1.55892 -5.10918,1.88445 -6.48445,0.50919 z m 8.19558,-6.78869 c 0.54198,-5.60699 -2.9335,-5.91956 -4.84517,-0.43576 -1.48532,4.26077 -0.8034,5.74693 2.36235,5.14852 1.24606,-0.23555 2.2307,-2.10453 2.48282,-4.71276 z m 31.80442,6.78869 c -1.41414,-1.41412 -1.03976,-2.7679 0.97972,-3.54285 1.11107,-0.42636 2.14155,0.32663 2.54184,1.85735 0.65305,2.49728 -1.62125,3.58582 -3.52156,1.6855 z m 8.39753,-1.69012 c 0.75914,-1.41845 1.38908,-4.26845 1.3999,-6.33333 0.0223,-4.25429 2.58072,-9.96897 4.78868,-10.69625 2.09828,-0.69115 -0.10987,12.34408 -2.78194,16.42209 -2.55345,3.89707 -5.44293,4.41232 -3.40664,0.60749 z m 13.04542,-0.79876 c -1.03956,-5.4381 3.33824,-9.85401 9.52442,-9.60732 l 5.1097,0.20376 -1.24684,4.5157 c -0.68576,2.48364 -0.87432,4.88821 -0.41903,5.3435 1.5798,1.5798 5.37011,-2.0496 6.03324,-5.77712 0.36667,-2.06108 1.48151,-4.01853 2.47741,-4.34989 1.41915,-0.47217 1.61507,0.5558 0.90592,4.75317 -1.47828,8.74992 3.42006,8.2993 5.78188,-0.5319 0.5391,-2.01576 1.7623,-3.92574 2.71823,-4.24438 1.33591,-0.4453 1.52335,0.69151 0.81011,4.91312 -0.71666,4.24187 -0.50659,5.49247 0.92258,5.49247 3.06764,0 5.05054,-2.94977 5.05054,-7.5132 0,-5.06616 2.1711,-11.34468 4.41674,-12.77259 2.99006,-1.90122 3.73214,-1.04421 1.65886,1.9158 -2.47466,3.53307 -2.85682,9.67686 -0.51176,8.22754 0.8601,-0.53159 0.5601,0.4665 -0.66667,2.21797 -3.01645,4.3066 -2.80539,6.4554 0.76949,7.83389 2.80606,1.08204 2.83774,1.22216 0.49004,2.16747 -1.45065,0.58411 -3.62718,0.31292 -5.15718,-0.64259 -1.89874,-1.18577 -3.0552,-1.24528 -4.09006,-0.21042 -1.89385,1.89385 -5.88494,1.8497 -6.52557,-0.0721 -0.35919,-1.07757 -1.35368,-0.98497 -3.44444,0.32074 -2.34743,1.46598 -3.46409,1.50806 -5.54431,0.20896 -1.6401,-1.02427 -2.9038,-1.14306 -3.41202,-0.32074 -1.15122,1.86271 -5.61603,1.61646 -6.53868,-0.36064 -0.62222,-1.33333 -0.93334,-1.33333 -1.55555,0 -0.42779,0.91667 -2.15784,1.66667 -3.84457,1.66667 -2.22319,0 -3.2444,-0.92915 -3.71248,-3.37777 z m 8.06816,-0.88889 c 2.2712,-2.2712 2.02181,-7.73333 -0.3531,-7.73333 -2.14126,0 -4.71357,3.95413 -4.71357,7.24568 0,2.47481 2.80913,2.74518 5.06667,0.48765 z m 41.40082,2.50871 c -1.882,-1.43186 -1.95954,-2.24307 -0.53764,-5.62478 3.56912,-8.48842 10.73682,-9.96285 10.73682,-2.20861 0,2.39112 0.9,4.98396 2,5.76187 1.70705,1.2072 1.6725,1.3099 -0.23586,0.70117 -1.2297,-0.39225 -2.95317,0.15115 -3.82992,1.20756 -1.9427,2.34081 -5.18532,2.40571 -8.1334,0.16279 z m 7.70623,-3.90871 c -0.44219,-1.65 -0.81217,-4.05 -0.82219,-5.33333 -0.0275,-3.51574 -2.51682,-2.80046 -3.46992,0.99701 -1.07888,4.29857 0.12134,7.33632 2.89872,7.33632 1.62806,0 1.98906,-0.77724 1.39339,-3 z m -94.50006,-4.33333 c 0.6302,-3.29672 1.75712,-4.12478 3.39054,-2.49136 1.02472,1.02472 -1.3867,5.82469 -2.92622,5.82469 -0.60584,0 -0.81478,-1.5 -0.46432,-3.33333 z m 18.64419,-2.33334 c -1.63212,-4.28976 4.75822,-11.48458 8.75607,-9.8584 0.94461,0.38424 0.72733,0.69071 -0.53393,0.75314 -3.51623,0.17404 -7.18072,5.06 -5.40224,7.20293 0.82818,0.99789 1.11098,2.20915 0.62846,2.69168 -1.36,1.35999 -2.75181,1.0414 -3.44836,-0.78935 z m 15.62668,-2.08077 c 0.63487,-2.89057 0.36382,-5.13039 -0.80362,-6.64051 -1.34754,-1.74309 -1.06186,-1.68168 1.2154,0.26127 3.51617,2.99999 3.8246,6.43007 0.80361,8.93727 -1.95747,1.62454 -2.07821,1.3704 -1.21539,-2.55803 z M 97.271761,182.823 c 0.43876,-0.70992 2.850059,-1.21362 5.358439,-1.11931 5.94813,0.22361 4.59682,2.41007 -1.4895,2.41007 -2.668979,0 -4.325179,-0.55255 -3.868939,-1.29076 z m -11.01837,-4.07586 c -1.767775,-2.83065 -0.832815,-3.35806 2.366873,-1.33516 1.347657,0.85203 1.551824,1.69443 0.633279,2.61298 -0.918544,0.91854 -1.885779,0.50658 -3.000152,-1.27782 z m 105.403389,-4.8907 c 1.2973,-0.33806 3.0973,-0.31583 4,0.0495 0.90271,0.36524 -0.1587,0.64183 -2.3587,0.61466 -2.2,-0.0272 -2.93859,-0.326 -1.6413,-0.66406 z m 21.30796,0.005 c 1.28334,-0.33536 3.38334,-0.33536 4.66667,0 1.28333,0.33537 0.23333,0.60977 -2.33333,0.60977 -2.56667,0 -3.61667,-0.2744 -2.33334,-0.60977 z m -36.33333,-3.13125 c -4.03333,-1.44122 -8.15091,-2.92667 -9.15016,-3.30102 -1.48488,-0.55626 -1.50453,-1.05694 -0.1076,-2.74017 1.45576,-1.75408 4.24232,-1.92183 18.78885,-1.13107 12.60083,0.68499 39.87629,-10.15399 41.31379,-11.34699 1.67149,-1.38723 -8.11238,6.90212 -9.37894,9.58593 -1.6047,3.40035 -13.65797,5.9796 -39.7993,2.91394 -5.6416,-0.6616 -8.33333,-0.51618 -8.33333,0.4502 0,1.28611 9.871,5.61628 16.66666,7.31128 l 2.66667,0.66514 -2.66667,0.10653 c -1.46666,0.0587 -5.96666,-1.0726 -10,-2.5138 z m 10.99176,-12.9501 c -0.78669,-2.75 -1.84236,-7.0093 -2.34593,-9.46512 -1.13063,-5.51376 -2.53982,-4.28582 -5.67854,4.94814 -1.31705,3.87473 -2.97349,6.98557 -3.68097,6.91297 -1.79109,-0.18379 -0.92747,-14.95349 1.48321,-25.36624 2.44666,-10.56804 7.09343,-18.77253 13.32358,-23.52449 2.97493,-2.2691 4.42053,-4.31421 3.93812,-5.57134 -0.96632,-2.51819 2.94681,-6.933924 6.14468,-6.933924 1.3361,0 3.38576,1.459774 4.55478,3.243924 2.61436,3.99003 0.80678,8.35234 -3.72777,8.9963 -2.33269,0.33127 -3.09924,1.4348 -3.43449,4.94428 -0.71308,7.46474 0.78805,10.82197 5.76953,12.90337 2.51701,1.05167 4.92719,1.91213 5.35593,1.91213 1.01128,0 8.24258,-15.61834 9.33558,-20.16323 0.71525,-2.9741 0.32057,-3.62715 -2.64144,-4.37057 -8.01444,-2.01149 -6.45966,-14.132874 1.81278,-14.132874 4.32971,0 6.33916,1.88986 7.00476,6.58786 0.33591,2.370884 1.61279,3.551344 4.70286,4.347734 5.60845,1.44543 12.38192,9.59096 16.02456,19.27058 5.08386,13.50942 5.10066,13.79384 0.81473,13.79384 -2.07093,0 -5.71136,0.55812 -8.08985,1.24025 -3.65324,1.04775 -4.3247,0.89252 -4.32559,-1 -0.001,-2.46259 -7.46528,-18.90692 -8.58189,-18.90692 -0.38291,0 -1.89984,2.35935 -3.37098,5.24301 -1.47113,2.88365 -5.68302,7.83365 -9.35977,11 -3.67675,3.16635 -6.68529,6.4428 -6.68565,7.281 -10e-4,2.48036 -3.70915,3.15882 -4.59844,0.84136 -0.5052,-1.31654 0.56868,-3.58077 2.80577,-5.9158 3.44216,-3.59284 3.48288,-3.7829 0.81044,-3.7829 -1.5476,0 -4.65863,-1.5523 -6.91337,-3.44955 -2.98228,-2.50941 -4.25776,-2.96364 -4.68004,-1.66667 -0.31927,0.98059 -0.98092,9.43288 -1.47034,18.78288 -0.48942,9.35 -1.33448,17 -1.87789,17 -0.54341,0 -1.63168,-2.25 -2.41836,-5 z m 40.49157,-7.1326 c 7.35739,-4.62963 12.96058,-8.50565 21.89014,-10.96189 9.00081,-2.47583 25.3442,-3.89203 27.72093,-2.40209 1.03375,0.64804 -3.92225,1.4046 -12,1.83188 -15.81028,0.83628 -25.8476,4.00894 -35.15179,11.11098 -7.44805,5.68524 -15.40146,8.56497 -2.45928,0.42112 z M 17.298075,141.38366 c 2.933333,-1.38284 7.080628,-3.13697 9.216211,-3.89809 2.135581,-0.76111 3.5181,-1.74861 3.072262,-2.19445 -0.445837,-0.44584 -3.644881,0.15512 -7.108987,1.33546 -9.475288,3.22855 -8.411854,1.73576 1.804936,-2.53366 11.99901,-5.0142 53.397643,-25.62922 57.975038,-28.86948 3.565129,-2.52369 3.632414,-2.83955 4,-18.777484 l 0.373874,-16.21062 13.333332,-8.37751 c 7.333339,-4.60763 13.783339,-8.38498 14.333339,-8.39412 0.55,-0.009 1,7.18338 1,15.98338 0,8.8 0.32709,16 0.72688,16 1.23647,0 20.51558,-13.21362 36.60645,-25.08952 18.87989,-13.93434 32.53421,-25.144409 50.40105,-41.37878 L 216.76685,6.4992954 230.3658,19.69581 c 30.22184,29.327486 58.81584,50.101366 96.26561,69.938136 8.06667,4.27283 14.17723,7.77877 13.57902,7.79096 -0.59822,0.0121 -2.2996,-0.62643 -3.78087,-1.41918 -1.48127,-0.79275 -2.99844,-1.13613 -3.37149,-0.76307 -0.37307,0.37306 1.62832,1.89515 4.44753,3.38243 8.55845,4.515044 4.2496,3.221014 -19.83585,-5.95707 -42.51949,-16.20262 -70.61538,-31.56041 -90.06615,-49.232003 l -8.36115,-7.596342 -4.30552,3.404787 c -2.36804,1.872632 -8.80552,7.077368 -14.30552,11.566088 -5.5,4.48872 -17.2,12.98298 -26,18.87614 -8.8,5.89315 -16.93904,11.54266 -18.08676,12.55445 -4.27137,3.76551 -65.199369,33.644064 -81.913241,40.169544 -17.886212,6.98317 -60.243086,21.78618 -61.791716,21.59514 -0.481224,-0.0594 1.525048,-1.23933 4.458382,-2.62216 z M 155.29808,100.2299 c 14.75421,-1.135914 24.55518,-4.077954 34.35922,-10.313924 9.43299,-5.99996 10.78732,-5.71395 1.7529,0.37018 -11.24088,7.57006 -20.09668,10.216494 -35.44546,10.592394 l -13.33333,0.32654 z m 57.78781,-22.377974 c 2.65725,-3.12068 6.24263,-3.27403 25.21219,-1.07833 11.68042,1.352 12.01732,-0.94052 0.66666,-4.5366 -4.58333,-1.45207 -7.39984,-2.67383 -6.25889,-2.71502 1.14093,-0.0412 5.81261,1.18751 10.38151,2.73045 6.8392,2.30963 8.03236,3.13633 6.75245,4.67853 -1.25701,1.5146 -4.70345,1.70486 -18.00296,0.99388 -13.00809,-0.69541 -16.94583,-0.49354 -18.82689,0.96515 -2.16014,1.67511 -2.15316,1.57979 0.076,-1.03806 z m 12.54552,-9.28788 c 0.91667,-0.36989 2.41667,-0.36989 3.33333,0 0.91667,0.36988 0.16667,0.67251 -1.66666,0.67251 -1.83334,0 -2.58334,-0.30263 -1.66667,-0.67251 z"
     id="path71"
     inkscape:connector-curvature="0"
     sodipodi:nodetypes="cscscccccscscccccccsscssccsccccccccsscscsscssccsccccsccsssscscsssccssssscsscccscccccccssccccccccccsccsccccsscccssscccccccccccccccscscsccscscccccsscscccsscsssccccscccsscsccccccssccccsscccccccccscccscsccscsccscscsccsccccscccssscsccsccccscccccsssccccsccssscccccccsccccsccsccscccsccccccccccscccsscccccccsccsscccsssscccccscsccccccscccsscccscscccccscssssccccccscccsccsccccccccccccsccccsccssccccccccccccscsscsccsccssccscscccscssscsscccscccscsscscsasscsscsccssccsscsccsssscscsccscscccccsc" />
</svg>
